<svg xmlns="http://www.w3.org/2000/svg" width="167.86" height="35" viewBox="0 0 167.86 35"><rect class="svg__rect" x="0" y="0" width="75.43" height="35" fill="#31C4F3"/><rect class="svg__rect" x="73.43" y="0" width="94.43" height="35" fill="#389AD5"/><path class="svg__text" d="M15.70 22L14.22 22L14.22 13.47L17.22 13.47Q18.69 13.47 19.50 14.13Q20.30 14.79 20.30 16.05L20.30 16.05Q20.30 16.90 19.89 17.48Q19.47 18.06 18.73 18.37L18.73 18.37L20.65 21.92L20.65 22L19.06 22L17.35 18.71L15.70 18.71L15.70 22ZM15.70 14.66L15.70 17.52L17.22 17.52Q17.97 17.52 18.39 17.15Q18.82 16.77 18.82 16.11L18.82 16.11Q18.82 15.43 18.43 15.05Q18.04 14.68 17.26 14.66L17.26 14.66L15.70 14.66ZM30.27 22L24.69 22L24.69 13.47L30.23 13.47L30.23 14.66L26.18 14.66L26.18 17.02L29.68 17.02L29.68 18.19L26.18 18.19L26.18 20.82L30.27 20.82L30.27 22ZM37.58 22L34.47 22L34.47 13.47L37.39 13.47Q38.84 13.47 39.59 14.05Q40.35 14.63 40.35 15.78L40.35 15.78Q40.35 16.36 40.03 16.83Q39.72 17.30 39.11 17.56L39.11 17.56Q39.80 17.75 40.18 18.26Q40.56 18.78 40.56 19.51L40.56 19.51Q40.56 20.71 39.78 21.36Q39.01 22 37.58 22L37.58 22ZM35.95 18.15L35.95 20.82L37.60 20.82Q38.29 20.82 38.69 20.47Q39.08 20.13 39.08 19.51L39.08 19.51Q39.08 18.18 37.72 18.15L37.72 18.15L35.95 18.15ZM35.95 14.66L35.95 17.06L37.40 17.06Q38.09 17.06 38.48 16.75Q38.87 16.43 38.87 15.86L38.87 15.86Q38.87 15.23 38.51 14.95Q38.15 14.66 37.39 14.66L37.39 14.66L35.95 14.66ZM44.76 18.00L44.76 18.00L44.76 17.52Q44.76 16.28 45.20 15.32Q45.64 14.37 46.45 13.86Q47.25 13.35 48.30 13.35Q49.34 13.35 50.14 13.85Q50.95 14.35 51.39 15.29Q51.83 16.23 51.83 17.48L51.83 17.48L51.83 17.96Q51.83 19.21 51.40 20.16Q50.97 21.10 50.16 21.61Q49.36 22.12 48.31 22.12L48.31 22.12Q47.27 22.12 46.46 21.61Q45.65 21.10 45.20 20.17Q44.76 19.23 44.76 18.00ZM46.24 17.46L46.24 17.96Q46.24 19.36 46.79 20.13Q47.33 20.90 48.31 20.90L48.31 20.90Q49.29 20.90 49.82 20.15Q50.35 19.40 50.35 17.96L50.35 17.96L50.35 17.51Q50.35 16.09 49.82 15.34Q49.28 14.58 48.30 14.58L48.30 14.58Q47.33 14.58 46.79 15.33Q46.25 16.09 46.24 17.46L46.24 17.46ZM61.65 22L56.30 22L56.30 13.47L57.78 13.47L57.78 20.82L61.65 20.82L61.65 22Z" fill="#FFFFFF"/><path class="svg__text" d="M87.19 17.80L87.19 17.80Q87.19 16.54 87.79 15.54Q88.39 14.55 89.44 13.99Q90.49 13.43 91.81 13.43L91.81 13.43Q92.96 13.43 93.88 13.84Q94.81 14.25 95.42 15.02L95.42 15.02L93.91 16.39Q93.10 15.40 91.93 15.40L91.93 15.40Q91.24 15.40 90.71 15.70Q90.18 16 89.88 16.54Q89.59 17.09 89.59 17.80L89.59 17.80Q89.59 18.51 89.88 19.05Q90.18 19.60 90.71 19.90Q91.24 20.20 91.93 20.20L91.93 20.20Q93.10 20.20 93.91 19.22L93.91 19.22L95.42 20.58Q94.81 21.35 93.89 21.76Q92.96 22.17 91.81 22.17L91.81 22.17Q90.49 22.17 89.44 21.61Q88.39 21.05 87.79 20.05Q87.19 19.06 87.19 17.80ZM99.53 17.80L99.53 17.80Q99.53 16.55 100.13 15.55Q100.74 14.56 101.80 14.00Q102.86 13.43 104.19 13.43L104.19 13.43Q105.52 13.43 106.59 14.00Q107.65 14.56 108.26 15.55Q108.86 16.55 108.86 17.80L108.86 17.80Q108.86 19.05 108.26 20.04Q107.65 21.04 106.59 21.60Q105.53 22.17 104.19 22.17L104.19 22.17Q102.86 22.17 101.80 21.60Q100.74 21.04 100.13 20.04Q99.53 19.05 99.53 17.80ZM101.93 17.80L101.93 17.80Q101.93 18.51 102.23 19.05Q102.53 19.60 103.05 19.90Q103.56 20.20 104.19 20.20L104.19 20.20Q104.83 20.20 105.35 19.90Q105.86 19.60 106.16 19.05Q106.46 18.51 106.46 17.80L106.46 17.80Q106.46 17.09 106.16 16.54Q105.86 16 105.35 15.70Q104.83 15.40 104.19 15.40L104.19 15.40Q103.56 15.40 103.04 15.70Q102.53 16 102.23 16.54Q101.93 17.09 101.93 17.80ZM117.57 22L113.59 22L113.59 13.60L117.57 13.60Q118.95 13.60 120.01 14.12Q121.08 14.63 121.67 15.58Q122.26 16.53 122.26 17.80L122.26 17.80Q122.26 19.07 121.67 20.02Q121.08 20.97 120.01 21.48Q118.95 22 117.57 22L117.57 22ZM115.97 15.50L115.97 20.10L117.47 20.10Q118.55 20.10 119.20 19.49Q119.86 18.88 119.86 17.80L119.86 17.80Q119.86 16.72 119.20 16.11Q118.55 15.50 117.47 15.50L117.47 15.50L115.97 15.50ZM129.37 22L126.99 22L126.99 13.60L129.37 13.60L129.37 22ZM136.87 22L134.54 22L134.54 13.60L136.50 13.60L140.21 18.07L140.21 13.60L142.53 13.60L142.53 22L140.58 22L136.87 17.52L136.87 22ZM147.27 17.80L147.27 17.80Q147.27 16.54 147.86 15.54Q148.46 14.55 149.53 13.99Q150.60 13.43 151.94 13.43L151.94 13.43Q153.12 13.43 154.06 13.83Q154.99 14.22 155.62 14.97L155.62 14.97L154.10 16.33Q153.26 15.40 152.08 15.40L152.08 15.40Q152.07 15.40 152.07 15.40L152.07 15.40Q150.99 15.40 150.32 16.06Q149.66 16.71 149.66 17.80L149.66 17.80Q149.66 18.50 149.96 19.04Q150.27 19.59 150.81 19.89Q151.34 20.20 152.04 20.20L152.04 20.20Q152.73 20.20 153.32 19.93L153.32 19.93L153.32 17.62L155.42 17.62L155.42 21.10Q154.70 21.61 153.77 21.89Q152.83 22.17 151.90 22.17L151.90 22.17Q150.58 22.17 149.52 21.61Q148.46 21.05 147.86 20.05Q147.27 19.06 147.27 17.80Z" fill="#FFFFFF" x="86.43"/></svg>